<svg id="Layer_1" data-name="Layer 1" xmlns="http://www.w3.org/2000/svg" viewBox="0 0 492.12 74.02"><defs><style>.cls-1{fill:#d9d9d9;}.cls-2{fill:#cb2026;}</style></defs><title>T--BostonU--LandingPageLogo1</title><path class="cls-1" d="M.14,1.34H41.55q10.35,0,15.89,5.13A16.6,16.6,0,0,1,63,19.17a16,16,0,0,1-4,10.89,17.61,17.61,0,0,1-7.71,4.79Q59,36.7,62.66,41.21A17.52,17.52,0,0,1,66.3,52.56a19.52,19.52,0,0,1-2.59,10,19.07,19.07,0,0,1-7.08,7,23.37,23.37,0,0,1-8.4,2.34,96.79,96.79,0,0,1-9.91,1H.14ZM22.45,29.42h9.62q5.18,0,7.2-1.78a6.5,6.5,0,0,0,2-5.15,6.12,6.12,0,0,0-2-4.88q-2-1.76-7.06-1.76H22.45Zm0,28.12H33.73q5.71,0,8.06-2a6.83,6.83,0,0,0,2.34-5.44A6.31,6.31,0,0,0,41.81,45Q39.49,43,33.68,43H22.45Z" transform="translate(-0.14 -0.12)"/><path class="cls-1" d="M67,37.18q0-17.53,9.77-27.29T104,.12q17.87,0,27.54,9.59t9.67,26.88q0,12.55-4.22,20.58a30.11,30.11,0,0,1-12.21,12.5q-8,4.47-19.9,4.47-12.11,0-20-3.86A30.17,30.17,0,0,1,71.92,58.08Q67,49.73,67,37.18Zm22.12.1q0,10.84,4,15.58a13.64,13.64,0,0,0,11,4.74q7.13,0,11-4.64T119,36.3Q119,26.2,115,21.53T103.9,16.87a13.44,13.44,0,0,0-10.74,4.74Q89.11,26.34,89.11,37.28Z" transform="translate(-0.14 -0.12)"/><path class="cls-1" d="M141.12,49.24l21-1.32a16,16,0,0,0,2.78,7.81q3.42,4.35,9.77,4.35,4.74,0,7.3-2.22a6.66,6.66,0,0,0,2.56-5.15,6.57,6.57,0,0,0-2.44-5q-2.44-2.2-11.33-4.15-14.55-3.27-20.75-8.69a17.48,17.48,0,0,1-6.25-13.82A18.77,18.77,0,0,1,147,10.65a21.21,21.21,0,0,1,9.62-7.71Q163,.12,174.22.12q13.72,0,20.92,5.1t8.57,16.24l-20.85,1.22q-.83-4.83-3.49-7a11.21,11.21,0,0,0-7.35-2.2q-3.86,0-5.81,1.64a5,5,0,0,0-2,4,4,4,0,0,0,1.61,3.08q1.56,1.42,7.42,2.64,14.5,3.13,20.78,6.32A21.84,21.84,0,0,1,203.2,39a20.12,20.12,0,0,1,2.86,10.6,22.7,22.7,0,0,1-3.81,12.7,23.83,23.83,0,0,1-10.64,8.81q-6.84,3-17.24,3-18.26,0-25.29-7A27.73,27.73,0,0,1,141.12,49.24Z" transform="translate(-0.14 -0.12)"/><path class="cls-1" d="M204.06,1.34H271.3V19H248.74V72.93H226.62V19H204.06Z" transform="translate(-0.14 -0.12)"/><path class="cls-1" d="M270.43,37.18q0-17.53,9.77-27.29T307.39.12q17.87,0,27.54,9.59T344.6,36.6q0,12.55-4.22,20.58a30.12,30.12,0,0,1-12.21,12.5q-8,4.47-19.9,4.47-12.11,0-20-3.86a30.17,30.17,0,0,1-12.87-12.21Q270.42,49.73,270.43,37.18Zm22.12.1q0,10.84,4,15.58a13.64,13.64,0,0,0,11,4.74q7.13,0,11-4.64t3.91-16.65q0-10.11-4.08-14.77t-11.06-4.66a13.44,13.44,0,0,0-10.74,4.74Q292.54,26.34,292.54,37.28Z" transform="translate(-0.14 -0.12)"/><path class="cls-1" d="M348.56,1.34h20.65l27,39.6V1.34H417V72.93H396.16l-26.81-39.3v39.3h-20.8Z" transform="translate(-0.14 -0.12)"/><path class="cls-2" d="M470.19,1.34h22.07V44a35.91,35.91,0,0,1-2,12,25.88,25.88,0,0,1-6.2,9.86,24.74,24.74,0,0,1-8.86,5.93,44.61,44.61,0,0,1-15.48,2.39,97.51,97.51,0,0,1-11.4-.73A29.85,29.85,0,0,1,438,70.51a25.85,25.85,0,0,1-7.59-6.17,22.65,22.65,0,0,1-4.71-8.25A42.73,42.73,0,0,1,423.66,44V1.34h22.07V45q0,5.85,3.25,9.15t9,3.29q5.71,0,9-3.24t3.25-9.2Z" transform="translate(-0.14 -0.12)"/></svg>